<?xml version="1.0" encoding="utf-8"?>
<!-- Uploaded to: SVG Repo, www.svgrepo.com, Generator: SVG Repo Mixer Tools -->
<svg width="800px" height="800px" viewBox="0 0 1024 1024" class="icon"  version="1.1" xmlns="http://www.w3.org/2000/svg"><path d="M1002.68032 380.51328V224.11264c0-0.90112-0.22528-1.74592-0.26624-2.6368v-6.11328h-0.6144c-4.28544-29.88032-29.73184-52.92544-60.79488-52.92544H83.00032c-31.06816 0-56.51456 23.04512-60.8 52.92544h-0.88064v221.94176h0.26624v44.24192c-0.03584 0.896-0.26624 1.73568-0.26624 2.6368v337.5104c0 0.90112 0.22528 1.7408 0.26624 2.6368v6.11328h0.6144c4.28544 29.88032 29.73184 52.92544 60.79488 52.92544h857.99936c31.06816 0 56.51456-23.04512 60.8-52.92544h0.88064V427.392h-0.26624v-44.24192c0.04096-0.89088 0.27136-1.73568 0.27136-2.6368z" fill="#727070" /><path d="M921.71776 404.00896V273.41312c0-0.75264-0.18944-1.45408-0.22016-2.2016v-5.10464h-0.512c-3.57888-24.94976-24.82688-44.19584-50.7648-44.19584H153.78432c-25.93792 0-47.19104 19.24096-50.7648 44.19584h-0.73728V451.4304h0.22016v36.9408c-0.03072 0.74752-0.22016 1.44896-0.22016 2.2016v281.82528c0 0.75264 0.18944 1.45408 0.22016 2.2016v5.10464h0.512c3.57888 24.94976 24.82688 44.19584 50.7648 44.19584h716.43136c25.93792 0 47.19104-19.24096 50.7648-44.19584h0.73728V443.15136h-0.22016v-36.9408c0.03584-0.74752 0.22528-1.44896 0.22528-2.2016z" fill="#807E7E" /><path d="M199.75168 221.91104h-45.96736c-25.93792 0-47.19104 19.24096-50.7648 44.19584h-0.73728V451.4304h0.22016v36.9408c-0.03072 0.74752-0.22016 1.44896-0.22016 2.2016v281.82528c0 0.75264 0.18944 1.45408 0.22016 2.2016v5.10464h0.51712c3.57888 24.94976 24.82688 44.19584 50.7648 44.19584h45.96736V221.91104z" fill="#414040" /><path d="M279.66976 486.21056c0 4.10624-3.23584 7.43424-7.22944 7.43424h-50.59584c-3.9936 0-7.22944-3.328-7.22944-7.43424 0-4.10624 3.23584-7.43424 7.22944-7.43424h50.59584c3.9936 0 7.22944 3.328 7.22944 7.43424z" fill="#01F6C2" /><path d="M275.95264 324.85376a13.6704 13.6704 0 0 1-13.66528 13.66528h-35.8656a13.6704 13.6704 0 0 1-13.66528-13.66528V255.26784a13.6704 13.6704 0 0 1 13.66528-13.66528h35.8656a13.6704 13.6704 0 0 1 13.66528 13.66528v69.58592zM277.8112 438.23104a13.6704 13.6704 0 0 1-13.66528 13.66528h-35.8656a13.6704 13.6704 0 0 1-13.66528-13.66528V368.64512a13.6704 13.6704 0 0 1 13.66528-13.66528h35.8656a13.6704 13.6704 0 0 1 13.66528 13.66528v69.58592zM275.95264 783.93344a13.6704 13.6704 0 0 1-13.66528 13.66528h-35.8656a13.6704 13.6704 0 0 1-13.66528-13.66528V652.4928a13.6704 13.6704 0 0 1 13.66528-13.66528h35.8656a13.6704 13.6704 0 0 1 13.66528 13.66528v131.44064zM277.8112 603.648a13.6704 13.6704 0 0 1-13.66528 13.66528h-35.8656a13.6704 13.6704 0 0 1-13.66528-13.66528v-69.58592a13.6704 13.6704 0 0 1 13.66528-13.66528h35.8656a13.6704 13.6704 0 0 1 13.66528 13.66528V603.648zM971.2896 685.9776a11.15136 11.15136 0 1 1-17.59744 13.70112l-187.264-240.512a11.15136 11.15136 0 1 1 17.60256-13.70112l187.25888 240.512z" fill="#414040" /></svg>